<svg width="400" height="400" viewBox="0 0 400 400" fill="none" xmlns="http://www.w3.org/2000/svg">
<circle cx="200" cy="200" r="180" fill="#FFDDC1" stroke="#FFA07A" stroke-width="5"/>
<path d="M150 180 Q 200 130 250 180" stroke="#FFA07A" stroke-width="5" stroke-linecap="round" stroke-linejoin="round"/>
<path d="M170 230 C 170 230 180 250 200 250 C 220 250 230 230 230 230" stroke="#FFA07A" stroke-width="5" stroke-linecap="round" stroke-linejoin="round"/>
<path d="M120 200 C 120 200 130 220 150 220 C 170 220 180 200 180 200" stroke="#FFA07A" stroke-width="5" stroke-linecap="round" stroke-linejoin="round"/>
<path d="M220 200 C 220 200 230 220 250 220 C 270 220 280 200 280 200" stroke="#FFA07A" stroke-width="5" stroke-linecap="round" stroke-linejoin="round"/>
<path d="M175 160 C 175 160 185 140 200 140 C 215 140 225 160 225 160" stroke="#FFA07A" stroke-width="5" stroke-linecap="round" stroke-linejoin="round"/>
<rect x="160" y="270" width="80" height="20" rx="10" fill="#FFA07A"/>
<circle cx="160" cy="200" r="10" fill="#FFA07A"/>
<circle cx="240" cy="200" r="10" fill="#FFA07A"/>
</svg> 